<svg xmlns="http://www.w3.org/2000/svg" version="1.1" xmlns:xlink="http://www.w3.org/1999/xlink" xmlns:svgjs="http://svgjs.dev/svgjs" width="1000" height="1000" viewBox="0 0 1000 1000"><rect width="1000" height="1000" fill="#ffdaba"></rect><g transform="matrix(0.7,0,0,0.7,149.57576359406687,282.1265587044535)"><svg viewBox="0 0 396 247" data-background-color="#ffdaba" preserveAspectRatio="xMidYMid meet" height="623" width="1000" xmlns="http://www.w3.org/2000/svg" xmlns:xlink="http://www.w3.org/1999/xlink"><g id="tight-bounds" transform="matrix(1,0,0,1,0.23999661752208112,-0.09999999999999432)"><svg viewBox="0 0 395.52 247.2" height="247.2" width="395.52"><g><svg></svg></g><g><svg viewBox="0 0 395.52 247.2" height="247.2" width="395.52"><g><g><path xmlns="http://www.w3.org/2000/svg" d="M116.995 68.817c-3.712-10.088-7.376-21.509-10.992-34.262-2.141 9.85-5.496 21.271-10.064 34.262l-5.744 15.12-26.686 0 31.288-79.503h23.34l31.097 79.503h-26.569zM211.358 242.766h-28.48l-29.623-75.447h-95.076l-29.193 75.447h-27.981l31.287-79.503h147.969zM244.049 5.29h61.528c59.292 0 88.938 23.103 88.938 69.309 0 3.211-0.148 6.324-0.443 9.338l-28.376 0c0.226-2.214 0.339-4.518 0.339-6.911 0-16.655-5.187-28.766-15.561-36.332-10.326-7.566-26.315-11.349-47.966-11.349h-30.836v54.592l-27.623 0zM271.672 242.766h-27.623l0-79.503 27.623 0z" fill="#22932a" fill-rule="nonzero" stroke="none" stroke-width="1" stroke-linecap="butt" stroke-linejoin="miter" stroke-miterlimit="10" stroke-dasharray="" stroke-dashoffset="0" font-family="none" font-weight="none" font-size="none" text-anchor="none" style="mix-blend-mode: normal" data-fill-palette-color="tertiary"></path></g></g><g transform="matrix(1,0,0,1,0,89.56790303994917)"><svg viewBox="0 0 395.52 68.06419392010164" height="68.06419392010164" width="395.52"><g><svg viewBox="0 0 395.52 68.06419392010164" height="68.06419392010164" width="395.52"><g><svg viewBox="0 0 395.52 68.06419392010164" height="68.06419392010164" width="395.52"><g><svg viewBox="0 0 395.52 68.06419392010164" height="68.06419392010164" width="395.52"><g><svg viewBox="0 0 395.52 68.06419392010164" height="68.06419392010164" width="395.52"><g><svg viewBox="0 0 395.52 38.586806415753536" height="38.586806415753536" width="395.52"><g transform="matrix(1,0,0,1,0,0)"><svg width="395.52" viewBox="0 -35.38999938964844 477.4800109863281 46.59000015258789" height="38.586806415753536" data-palette-color="#22932a"><path d="M13.3-24.37L9.38-14.05 20.12-14.05 16.25-24.37Q15.47-26.49 14.71-29.17L14.71-29.17Q14.26-27.1 13.3-24.37L13.3-24.37ZM16.41-33.39L29.47 0 25.48 0 21.33-10.57 8.01-10.57 3.92 0 0 0 13.14-33.39 16.41-33.39ZM52.8-24.92L43.35 0 38.93 0 29.47-24.92 33.52-24.92 38.9-10.14Q40.72-4.9 41.02-3.41L41.02-3.41 41.2-3.41Q41.48-4.65 42.63-7.94 43.78-11.22 48.76-24.92L48.76-24.92 52.8-24.92ZM58.89-6.85L58.89-6.85Q58.89-4.83 60.13-3.74 61.37-2.65 63.59-2.65L63.59-2.65Q67.16-2.65 69.16-4.59 71.15-6.52 71.15-10.01L71.15-10.01 71.15-12.26 67.39-12.11Q62.89-11.93 60.89-10.69 58.89-9.45 58.89-6.85ZM74.94-17.01L74.94 0 72.14 0 71.38-3.54 71.2-3.54Q69.33-1.21 67.49-0.38 65.64 0.46 62.86 0.46L62.86 0.46Q59.12 0.46 57.03-1.47 54.95-3.39 54.95-6.9L54.95-6.9Q54.95-14.43 67.01-14.81L67.01-14.81 71.25-14.94 71.25-16.48Q71.25-19.46 69.99-20.84 68.73-22.22 65.78-22.22 62.84-22.22 58.89-20.32L58.89-20.32 57.73-23.21Q61.67-25.35 66.17-25.35 70.67-25.35 72.81-23.36 74.94-21.36 74.94-17.01L74.94-17.01ZM103.56-16.25L103.56 0 99.76 0 99.76-16.13Q99.76-19.21 98.37-20.69 96.98-22.17 94.05-22.17L94.05-22.17Q90.13-22.17 88.31-20.06 86.49-17.95 86.49-13.07L86.49-13.07 86.49 0 82.7 0 82.7-24.92 85.79-24.92 86.39-21.51 86.57-21.51Q87.73-23.33 89.83-24.36 91.93-25.38 94.51-25.38L94.51-25.38Q99.06-25.38 101.31-23.18 103.56-20.98 103.56-16.25L103.56-16.25ZM121.27 0.46L121.27 0.46Q115.84 0.46 112.86-2.88L112.86-2.88Q109.9-6.22 109.9-12.37 109.9-18.53 112.91-21.97L112.91-21.97Q115.94-25.38 121.5-25.38L121.5-25.38Q123.32-25.38 125.12-25 126.91-24.62 127.92-24.09L127.92-24.09 126.76-20.88Q123.95-22.04 121.43-22.04L121.43-22.04Q113.82-22.04 113.82-12.36L113.82-12.36Q113.82-7.74 115.69-5.28 117.56-2.83 121.17-2.83L121.17-2.83Q124.26-2.83 127.57-4.2L127.57-4.2 127.57-0.83Q125.07 0.46 121.27 0.46ZM144 0.46L144 0.46Q138.46 0.46 135.25-2.91L135.25-2.91Q132.07-6.27 132.07-12.29 132.07-18.3 135.02-21.84L135.02-21.84Q138.03-25.38 142.87-25.38 147.71-25.38 150.44-22.3 153.17-19.21 153.17-14.18L153.17-14.18 153.17-11.78 135.98-11.78Q136.11-7.41 138.21-5.12 140.31-2.83 144.26-2.83 148.22-2.83 152.09-4.52L152.09-4.52 152.09-1.16Q150.14-0.3 148.32 0.08 146.5 0.46 144 0.46ZM136.08-14.86L149.13-14.86Q149.13-18.43 147.54-20.32 145.94-22.22 142.97-22.22 140-22.22 138.2-20.27 136.39-18.33 136.08-14.86L136.08-14.86ZM173.62-33.27L182.24-33.27Q194.7-33.27 194.7-23.56L194.7-23.56Q194.7-18.53 191.25-15.8 187.8-13.07 181.4-13.07L181.4-13.07 177.49-13.07 177.49 0 173.62 0 173.62-33.27ZM181.81-29.9L177.49-29.9 177.49-16.41 180.97-16.41Q186.08-16.41 188.41-18.05L188.41-18.05Q190.71-19.72 190.71-23.22 190.71-26.72 188.53-28.31 186.36-29.9 181.81-29.9L181.81-29.9ZM221.95-16.25L221.95 0 218.15 0 218.15-16.13Q218.15-19.21 216.76-20.69 215.37-22.17 212.44-22.17L212.44-22.17Q208.47-22.17 206.68-20.02 204.88-17.87 204.88-13.04L204.88-13.04 204.88 0 201.09 0 201.09-35.39 204.88-35.39 204.88-24.67Q204.88-22.65 204.71-21.49L204.71-21.49 204.93-21.49Q206.07-23.31 208.13-24.33 210.19-25.35 212.8-25.35L212.8-25.35Q217.42-25.35 219.68-23.15 221.95-20.96 221.95-16.25L221.95-16.25ZM229.45 11.2L229.45 11.2Q227.76 11.2 226.04 10.82L226.04 10.82 226.04 7.79Q227.35 8.06 228.85 8.06L228.85 8.06Q232.74 8.06 234.41 3.69L234.41 3.69 235.8 0.13 225.74-24.92 229.78-24.92 235.24-10.72Q237.09-5.66 237.46-3.69L237.46-3.69 237.64-3.69Q237.97-4.98 238.84-7.56 239.71-10.14 245.07-24.92L245.07-24.92 249.12-24.92 238.4 3.46Q236.83 7.63 234.71 9.42 232.59 11.2 229.45 11.2ZM269.26-6.8L269.26-6.8Q269.26-3.31 266.67-1.43 264.08 0.46 259.25 0.46 254.42 0.46 251.64-1.11L251.64-1.11 251.64-4.63Q255.54-2.65 259.48-2.65L259.48-2.65Q265.62-2.65 265.62-6.47L265.62-6.47Q265.62-7.94 264.33-8.99 263.04-10.04 259.53-11.36 256.02-12.69 254.47-13.68L254.47-13.68Q251.57-15.65 251.57-18.76 251.57-21.87 254.04-23.62 256.52-25.38 260.73-25.38 264.94-25.38 268.73-23.76L268.73-23.76 267.39-20.68Q263.68-22.22 260.81-22.22 257.94-22.22 256.56-21.4 255.18-20.58 255.18-19.06L255.18-19.06Q255.18-18.1 255.68-17.38 256.17-16.66 257.31-16.01 258.44-15.37 261.7-14.18L261.7-14.18Q266.15-12.54 267.71-10.91 269.26-9.28 269.26-6.8ZM278.89-29.82Q278.26-29.17 277.27-29.17 276.29-29.17 275.68-29.82 275.07-30.46 275.07-31.7 275.07-32.94 275.68-33.57 276.29-34.2 277.27-34.2 278.26-34.2 278.89-33.56 279.52-32.91 279.52-31.69 279.52-30.46 278.89-29.82ZM275.38-24.92L279.17-24.92 279.17 0 275.38 0 275.38-24.92ZM288.84-21.99Q291.91-25.38 297.21-25.38 302.52-25.38 305.61-21.9 308.69-18.43 308.69-12.42 308.69-6.42 305.61-2.96L305.61-2.96Q302.52 0.46 297.14 0.46L297.14 0.46Q292.06 0.51 288.87-3.06 285.69-6.62 285.76-12.49L285.76-12.49Q285.76-18.6 288.84-21.99ZM297.16-22.17L297.16-22.17Q289.68-22.17 289.68-12.49L289.68-12.49Q289.68-7.71 291.59-5.21 293.5-2.7 297.21-2.7 300.93-2.7 302.85-5.19 304.77-7.68 304.77-12.47 304.77-17.26 302.85-19.72 300.93-22.17 297.16-22.17ZM319.36-21.99L319.36-7.33Q319.36-5.08 320.4-3.87 321.45-2.65 323.29-2.65 325.12-2.65 326.76-3.11L326.76-3.11 326.76-0.23Q326.18 0.05 324.93 0.25 323.68 0.46 322.79 0.46L322.79 0.46Q315.56 0.46 315.56-7.15L315.56-7.15 315.56-21.99 312-21.99 312-23.81 315.56-25.38 317.16-30.71 319.36-30.71 319.36-24.92 326.59-24.92 326.59-21.99 319.36-21.99ZM352.59-16.25L352.59 0 348.8 0 348.8-16.13Q348.8-19.21 347.41-20.69 346.02-22.17 343.09-22.17L343.09-22.17Q339.12-22.17 337.33-20.02 335.53-17.87 335.53-13.04L335.53-13.04 335.53 0 331.74 0 331.74-35.39 335.53-35.39 335.53-24.67Q335.53-22.65 335.35-21.49L335.35-21.49 335.58-21.49Q336.72-23.31 338.78-24.33 340.84-25.35 343.44-25.35L343.44-25.35Q348.07-25.35 350.33-23.15 352.59-20.96 352.59-16.25L352.59-16.25ZM370.87 0.46L370.87 0.46Q365.33 0.46 362.12-2.91L362.12-2.91Q358.94-6.27 358.94-12.29 358.94-18.3 361.89-21.84L361.89-21.84Q364.9-25.38 369.74-25.38 374.58-25.38 377.31-22.3 380.04-19.21 380.04-14.18L380.04-14.18 380.04-11.78 362.85-11.78Q362.98-7.41 365.08-5.12 367.18-2.83 371.13-2.83 375.09-2.83 378.96-4.52L378.96-4.52 378.96-1.16Q377.01-0.3 375.19 0.08 373.37 0.46 370.87 0.46ZM362.96-14.86L376-14.86Q376-18.43 374.41-20.32 372.81-22.22 369.84-22.22 366.87-22.22 365.07-20.27 363.26-18.33 362.96-14.86L362.96-14.86ZM397.84-25.38L397.84-25.38Q399.56-25.38 400.82-25.13L400.82-25.13 400.31-21.61Q398.82-21.94 397.58-21.94L397.58-21.94Q394.55-21.94 392.4-19.49 390.25-17.04 390.25-13.37L390.25-13.37 390.25 0 386.46 0 386.46-24.92 389.6-24.92 390.03-20.32 390.2-20.32Q391.59-22.78 393.55-24.08 395.51-25.38 397.84-25.38ZM406.63-6.85L406.63-6.85Q406.63-4.83 407.87-3.74 409.11-2.65 411.33-2.65L411.33-2.65Q414.9-2.65 416.89-4.59 418.89-6.52 418.89-10.01L418.89-10.01 418.89-12.26 415.12-12.11Q410.62-11.93 408.63-10.69 406.63-9.45 406.63-6.85ZM422.68-17.01L422.68 0 419.88 0 419.12-3.54 418.94-3.54Q417.07-1.21 415.23-0.38 413.38 0.46 410.6 0.46L410.6 0.46Q406.86 0.46 404.77-1.47 402.69-3.39 402.69-6.9L402.69-6.9Q402.69-14.43 414.75-14.81L414.75-14.81 418.99-14.94 418.99-16.48Q418.99-19.46 417.73-20.84 416.46-22.22 413.52-22.22 410.57-22.22 406.63-20.32L406.63-20.32 405.47-23.21Q409.41-25.35 413.91-25.35 418.41-25.35 420.55-23.36 422.68-21.36 422.68-17.01L422.68-17.01ZM446.66-5.31Q448.49-7.91 448.49-12.54 448.49-17.16 446.67-19.67 444.85-22.17 441.51-22.17L441.51-22.17Q437.72-22.17 436-20.07 434.28-17.97 434.23-13.32L434.23-13.32 434.23-12.49Q434.23-7.23 435.98-4.97 437.72-2.7 441.59-2.7L441.59-2.7Q444.82-2.7 446.66-5.31ZM449.7-21.99Q452.41-18.6 452.41-12.46 452.41-6.32 449.66-2.93 446.92 0.46 441.9 0.46 436.89 0.46 434.23-3.21L434.23-3.21 433.95-3.21Q434.23-0.91 434.23 0.94L434.23 0.94 434.23 11.2 430.44 11.2 430.44-24.92 433.52-24.92 434.06-21.51 434.23-21.51Q436.96-25.38 441.98-25.38 447-25.38 449.7-21.99ZM457.81 11.2L457.81 11.2Q456.12 11.2 454.4 10.82L454.4 10.82 454.4 7.79Q455.72 8.06 457.21 8.06L457.21 8.06Q461.1 8.06 462.77 3.69L462.77 3.69 464.16 0.13 454.1-24.92 458.14-24.92 463.6-10.72Q465.45-5.66 465.83-3.69L465.83-3.69 466-3.69Q466.33-4.98 467.2-7.56 468.08-10.14 473.44-24.92L473.44-24.92 477.48-24.92 466.76 3.46Q465.2 7.63 463.07 9.42 460.95 11.2 457.81 11.2Z" opacity="1" transform="matrix(1,0,0,1,0,0)" fill="#22932a" class="undefined-text-0" data-fill-palette-color="primary" id="text-0"></path></svg></g></svg></g><g transform="matrix(1,0,0,1,0,44.21754755516596)"><svg viewBox="0 0 395.52 23.846646364935683" height="23.846646364935683" width="395.52"><g transform="matrix(1,0,0,1,0,0)"><svg width="395.52" viewBox="2.200000047683716 -37.75 850.8599853515625 51.29999923706055" height="23.846646364935683" data-palette-color="#22932a"><path d="M23.1 0.5L21.6 0.5Q19.4-4.5 17.15-9.47 14.9-14.45 12.75-19.55L12.75-19.55Q12.05-21.15 11.38-22.78 10.7-24.4 10.08-26.05 9.45-27.7 8.8-29.35L8.8-29.35Q8.8-28.8 8.78-28.25 8.75-27.7 8.75-27.15L8.75-27.15Q8.7-25.35 8.63-22.83 8.55-20.3 8.45-17.43 8.35-14.55 8.3-11.68 8.25-8.8 8.2-6.25L8.2-6.25Q8.15-5.15 8.13-4.05 8.1-2.95 8-2L8-2Q8.95-2.05 9.88-2.1 10.8-2.15 11.75-2.2L11.75-2.2 11.75 0 2.2 0 2.2-1.65Q3.75-1.7 4.48-2.33 5.2-2.95 5.4-4 5.6-5.05 5.65-6.25L5.65-6.25 6.6-29.05Q6.65-30.05 6.68-31.05 6.7-32.05 6.75-33L6.75-33Q5.85-32.95 4.95-32.93 4.05-32.9 3.15-32.85L3.15-32.85 3.15-35 10.8-35 19.4-15.15Q20.05-13.65 20.68-12.15 21.3-10.65 21.98-9.15 22.65-7.65 23.3-6.1L23.3-6.1 23.4-6.1Q23.95-7.45 24.7-9.33 25.45-11.2 25.95-12.55L25.95-12.55Q28.15-18.05 30.53-23.58 32.9-29.1 35.2-35L35.2-35 42.6-35 42.6-33.35Q41.35-33.4 40.55-32.88 39.75-32.35 39.4-31.15 39.05-29.95 39.15-27.9L39.15-27.9 40.45-5.15Q40.55-4.3 40.55-3.5 40.55-2.7 40.55-2.05L40.55-2.05Q41.45-2.1 42.38-2.13 43.3-2.15 44.2-2.2L44.2-2.2 44.2 0 33 0 33-1.65Q34.55-1.7 35.3-2.4 36.05-3.1 36.23-4.4 36.4-5.7 36.3-7.6L36.3-7.6 35.3-24.1Q35.25-24.9 35.2-25.7 35.15-26.5 35.1-27.3 35.05-28.1 35-28.9L35-28.9Q34.85-28.55 34.68-28.15 34.5-27.75 34.35-27.3L34.35-27.3 23.1 0.5ZM77.4 0L70.25 0Q70.1-0.85 70.05-1.5 70-2.15 69.9-2.85L69.9-2.85Q68.2-1.15 66.22-0.18 64.25 0.8 62.05 0.8L62.05 0.8Q58.25 0.8 56.4-0.93 54.55-2.65 54.55-5.15L54.55-5.15Q54.55-7.45 55.97-9.13 57.4-10.8 59.67-11.88 61.95-12.95 64.62-13.48 67.3-14 69.8-13.95L69.8-13.95 69.8-17.05Q69.8-18.8 69.5-20.35 69.2-21.9 68.2-22.9 67.2-23.9 65-23.95L65-23.95Q63.55-24 62.02-23.4 60.5-22.8 59.8-21.35L59.8-21.35Q60.2-20.95 60.32-20.43 60.45-19.9 60.45-19.45L60.45-19.45Q60.45-18.85 59.95-18.07 59.45-17.3 58.2-17.35L58.2-17.35Q57.15-17.35 56.6-18.07 56.05-18.8 56.05-19.8L56.05-19.8Q56.05-21.5 57.32-22.85 58.6-24.2 60.85-25 63.1-25.8 65.95-25.8L65.95-25.8Q70.15-25.8 72.15-23.58 74.15-21.35 74.1-16.55L74.1-16.55Q74.1-14.7 74.1-12.83 74.1-10.95 74.07-9.08 74.05-7.2 74.05-5.3L74.05-5.3Q74.05-4.5 74-3.7 73.95-2.9 73.85-1.9L73.85-1.9Q74.75-1.95 75.62-2 76.5-2.05 77.4-2.1L77.4-2.1 77.4 0ZM69.8-12.25L69.8-12.25Q68.1-12.2 66.22-11.83 64.35-11.45 62.77-10.7 61.2-9.95 60.22-8.72 59.25-7.5 59.3-5.75L59.3-5.75Q59.4-3.9 60.52-2.98 61.65-2.05 63.2-2.05L63.2-2.05Q65.25-2.05 66.77-2.83 68.3-3.6 69.8-5L69.8-5Q69.75-5.55 69.75-6.2 69.75-6.85 69.75-7.55L69.75-7.55Q69.75-7.8 69.77-9.15 69.8-10.5 69.8-12.25ZM97.54 0L87.34 0 87.34-1.5Q88.89-1.5 89.47-2.27 90.04-3.05 90.14-4.42 90.24-5.8 90.24-7.6L90.24-7.6 90.29-31.25Q90.29-32.05 90.32-32.77 90.34-33.5 90.44-34.5L90.44-34.5Q89.54-34.45 88.67-34.4 87.79-34.35 86.89-34.3L86.89-34.3 86.89-36.4Q89.09-36.4 90.29-36.6 91.49-36.8 92.12-37.1 92.74-37.4 93.09-37.75L93.09-37.75 94.54-37.75 94.54-14.1 96.54-14.1 102.64-20.5Q103.49-21.35 104.19-22.03 104.89-22.7 105.59-23.15L105.59-23.15 102.19-23 102.19-25 111.29-25 111.29-23.5Q109.59-23.35 108.12-22.43 106.64-21.5 105.42-20.35 104.19-19.2 103.29-18.25L103.29-18.25 99.39-14.15Q100.39-13.7 101.09-13 101.79-12.3 102.49-11.45L102.49-11.45 106.04-6.9Q106.29-6.6 106.92-5.75 107.54-4.9 108.42-3.9 109.29-2.9 110.27-2.2 111.24-1.5 112.09-1.5L112.09-1.5 112.09 0 107.54 0Q106.14 0 104.89-1.45 103.64-2.9 102.24-4.7L102.24-4.7Q100.94-6.5 99.92-7.98 98.89-9.45 98.07-10.55 97.24-11.65 96.59-12.25L96.59-12.25 94.54-12.15 94.54-5.3Q94.54-4.3 94.52-3.53 94.49-2.75 94.34-1.9L94.34-1.9Q95.14-1.95 95.94-1.98 96.74-2 97.54-2.05L97.54-2.05 97.54 0ZM121.59 0L121.59-1.5Q123.14-1.5 123.74-2.27 124.34-3.05 124.44-4.42 124.54-5.8 124.54-7.6L124.54-7.6 124.54-19Q124.54-19.8 124.59-20.53 124.64-21.25 124.74-22.25L124.74-22.25Q123.84-22.2 122.97-22.15 122.09-22.1 121.19-22.05L121.19-22.05 121.19-24.15Q123.39-24.15 124.59-24.35 125.79-24.55 126.42-24.85 127.04-25.15 127.39-25.5L127.39-25.5 128.84-25.5 128.84-5.3Q128.84-4.3 128.82-3.53 128.79-2.75 128.64-1.9L128.64-1.9Q129.44-1.95 130.22-1.98 130.99-2 131.79-2.05L131.79-2.05 131.79 0 121.59 0ZM126.44-30.45L126.44-30.45Q125.39-30.45 124.59-31.3 123.79-32.15 123.79-33.4L123.79-33.4Q123.79-34.65 124.62-35.52 125.44-36.4 126.49-36.4L126.49-36.4Q127.64-36.4 128.42-35.52 129.19-34.65 129.19-33.4L129.19-33.4Q129.19-32.15 128.37-31.3 127.54-30.45 126.44-30.45ZM152.79 0L142.59 0 142.59-1.5Q144.14-1.5 144.74-2.27 145.34-3.05 145.44-4.42 145.54-5.8 145.54-7.6L145.54-7.6 145.59-19Q145.59-19.8 145.61-20.6 145.64-21.4 145.79-22.25L145.79-22.25Q144.89-22.2 144.01-22.15 143.14-22.1 142.24-22.05L142.24-22.05 142.24-24.15Q144.44-24.15 145.56-24.35 146.69-24.55 147.24-24.85 147.79-25.15 148.14-25.5L148.14-25.5 149.59-25.5Q149.64-25.15 149.66-24.7 149.69-24.25 149.74-23.7 149.79-23.15 149.79-22.45L149.79-22.45Q150.89-23.4 152.21-24.15 153.54-24.9 155.01-25.35 156.49-25.8 157.94-25.8L157.94-25.8Q162.29-25.8 164.29-23.08 166.29-20.35 166.29-14.6L166.29-14.6 166.29-5.3Q166.29-4.3 166.26-3.53 166.24-2.75 166.09-1.9L166.09-1.9Q166.89-1.95 167.66-1.98 168.44-2 169.24-2.05L169.24-2.05 169.24 0 159.04 0 159.04-1.5Q160.59-1.5 161.19-2.27 161.79-3.05 161.89-4.42 161.99-5.8 161.99-7.6L161.99-7.6 161.99-14.6Q161.94-18.9 160.56-21.1 159.19-23.3 156.24-23.25L156.24-23.25Q154.44-23.2 152.71-22.3 150.99-21.4 149.84-20L149.84-20Q149.89-19.6 149.89-19.1 149.89-18.6 149.89-18.05L149.89-18.05 149.84-5.3Q149.84-4.3 149.81-3.53 149.79-2.75 149.64-1.9L149.64-1.9Q150.44-1.95 151.21-1.98 151.99-2 152.79-2.05L152.79-2.05 152.79 0ZM191.93 13.55L191.93 13.55Q187.43 13.55 184.68 12.55 181.93 11.55 180.68 10 179.43 8.45 179.43 6.8L179.43 6.8Q179.43 5.25 180.16 4.08 180.88 2.9 181.96 2.05 183.03 1.2 184.03 0.8L184.03 0.8Q182.43 0.25 181.51-0.68 180.58-1.6 180.58-3.15L180.58-3.15Q180.58-4.9 181.98-6.43 183.38-7.95 185.58-8.3L185.58-8.3Q183.28-9.4 181.91-11.35 180.53-13.3 180.53-15.9L180.53-15.9Q180.53-18.9 182.08-21.13 183.63-23.35 186.06-24.58 188.48-25.8 191.08-25.8L191.08-25.8Q192.73-25.8 194.38-25.33 196.03-24.85 197.43-23.95L197.43-23.95Q197.93-25.35 198.86-26.45 199.78-27.55 200.98-28.18 202.18-28.8 203.48-28.8L203.48-28.8Q204.78-28.8 205.46-28.13 206.13-27.45 206.13-26.3L206.13-26.3Q206.13-25.95 205.93-25.45 205.73-24.95 205.26-24.6 204.78-24.25 203.98-24.25L203.98-24.25Q203.13-24.25 202.58-24.75 202.03-25.25 201.88-26L201.88-26Q200.63-25.8 199.93-24.83 199.23-23.85 198.98-22.7L198.98-22.7Q200.18-21.6 200.91-20.05 201.63-18.5 201.63-16.75L201.63-16.75Q201.63-13.95 200.16-11.75 198.68-9.55 196.28-8.33 193.88-7.1 191.08-7.1L191.08-7.1Q190.13-7.1 189.43-7.23 188.73-7.35 187.73-7.35L187.73-7.35Q185.88-7.35 184.73-6.45 183.58-5.55 183.93-4.3L183.93-4.3Q184.33-3.1 186.38-2.78 188.43-2.45 191.88-2.3L191.88-2.3Q195.73-2.15 198.48-1.4 201.23-0.65 202.71 0.93 204.18 2.5 204.18 5.2L204.18 5.2Q204.18 7.2 203.11 8.78 202.03 10.35 200.26 11.4 198.48 12.45 196.31 13 194.13 13.55 191.93 13.55ZM191.88 11.6L191.88 11.6Q196.18 11.6 198.58 10 200.98 8.4 200.98 6.25L200.98 6.25Q200.98 4.4 199.73 3.43 198.48 2.45 196.33 2.08 194.18 1.7 191.38 1.65L191.38 1.65Q190.03 1.6 188.73 1.53 187.43 1.45 186.23 1.25L186.23 1.25Q184.88 2.15 184.13 3.45 183.38 4.75 183.38 6.2L183.38 6.2Q183.38 8.65 185.71 10.13 188.03 11.6 191.88 11.6ZM191.23-8.9L191.23-8.9Q193.08-8.9 194.31-9.8 195.53-10.7 196.16-12.25 196.78-13.8 196.78-15.75L196.78-15.75Q196.78-17.95 196.13-19.85 195.48-21.75 194.21-22.9 192.93-24.05 190.98-24.05L190.98-24.05Q188.28-24.05 186.81-22.03 185.33-20 185.33-17L185.33-17Q185.33-14.6 186.03-12.78 186.73-10.95 188.06-9.93 189.38-8.9 191.23-8.9ZM234.08 0L234.08-1.5Q235.63-1.5 236.23-2.27 236.83-3.05 236.93-4.42 237.03-5.8 237.03-7.6L237.03-7.6 237.03-31.25Q237.03-32.05 237.05-32.77 237.08-33.5 237.18-34.5L237.18-34.5Q236.28-34.45 235.4-34.4 234.53-34.35 233.63-34.3L233.63-34.3 233.63-36.4Q235.83-36.4 237.05-36.6 238.28-36.8 238.9-37.1 239.53-37.4 239.88-37.75L239.88-37.75 241.33-37.75 241.38-5.3Q241.38-4.3 241.33-3.53 241.28-2.75 241.13-1.9L241.13-1.9Q241.93-1.95 242.7-1.98 243.48-2 244.28-2.05L244.28-2.05 244.28 0 234.08 0ZM255.12 0L255.12-1.5Q256.67-1.5 257.27-2.27 257.87-3.05 257.97-4.42 258.07-5.8 258.07-7.6L258.07-7.6 258.07-19Q258.07-19.8 258.12-20.53 258.17-21.25 258.27-22.25L258.27-22.25Q257.37-22.2 256.5-22.15 255.62-22.1 254.72-22.05L254.72-22.05 254.72-24.15Q256.92-24.15 258.12-24.35 259.32-24.55 259.95-24.85 260.57-25.15 260.92-25.5L260.92-25.5 262.37-25.5 262.37-5.3Q262.37-4.3 262.35-3.53 262.32-2.75 262.17-1.9L262.17-1.9Q262.97-1.95 263.75-1.98 264.52-2 265.32-2.05L265.32-2.05 265.32 0 255.12 0ZM259.97-30.45L259.97-30.45Q258.92-30.45 258.12-31.3 257.32-32.15 257.32-33.4L257.32-33.4Q257.32-34.65 258.15-35.52 258.97-36.4 260.02-36.4L260.02-36.4Q261.17-36.4 261.95-35.52 262.72-34.65 262.72-33.4L262.72-33.4Q262.72-32.15 261.9-31.3 261.07-30.45 259.97-30.45ZM287.62 0.15L285.62 0.15 278.47-16.15Q277.67-18.05 277.22-19.4 276.77-20.75 276.6-21.65 276.42-22.55 276.37-23.1L276.37-23.1 274.22-22.95 274.22-25 283.42-25 283.42-23.5Q281.92-23.5 281.5-22.73 281.07-21.95 281.37-20.68 281.67-19.4 282.27-17.95L282.27-17.95 286.12-9.15Q286.52-8.3 286.9-7.38 287.27-6.45 287.62-5.45L287.62-5.45 287.67-5.45Q287.92-6.2 288.25-7.05 288.57-7.9 288.82-8.7L288.82-8.7 292.82-19.65Q293.22-20.85 293.67-21.75 294.12-22.65 294.32-23.1L294.32-23.1 291.12-22.95 291.12-25 299.02-25 299.02-23.5Q297.92-23.5 297.17-22.75 296.42-22 295.75-20.5 295.07-19 294.17-16.75L294.17-16.75 287.62 0.15ZM320.17 0.8L320.17 0.8Q316.72 0.8 313.94-0.83 311.17-2.45 309.57-5.43 307.97-8.4 307.97-12.45L307.97-12.45Q307.97-15.95 309.54-19 311.12-22.05 313.97-23.93 316.82-25.8 320.57-25.8L320.57-25.8Q322.67-25.8 324.49-25.13 326.32-24.45 327.72-23.08 329.12-21.7 329.92-19.63 330.72-17.55 330.72-14.75L330.72-14.75 313.12-14.45Q313.12-10.65 313.94-7.78 314.77-4.9 316.62-3.33 318.47-1.75 321.37-1.75L321.37-1.75Q322.92-1.75 324.54-2.3 326.17-2.85 327.57-3.8 328.97-4.75 329.82-5.9L329.82-5.9 331.02-4.9Q329.67-2.8 327.77-1.55 325.87-0.3 323.87 0.25 321.87 0.8 320.17 0.8ZM313.27-16.55L313.27-16.55 326.02-16.55Q326.02-18.35 325.49-20.03 324.97-21.7 323.77-22.78 322.57-23.85 320.62-23.85L320.62-23.85Q317.72-23.85 315.79-22.13 313.87-20.4 313.27-16.55ZM352.36 0.8L352.36 0.8Q349.86 0.8 347.91 0.13 345.96-0.55 344.71-1.4L344.71-1.4 344.91 0.35 342.81 0.35 342.51-8.25 344.06-8.25Q344.16-6.2 345.21-4.58 346.26-2.95 347.91-2.05 349.56-1.15 351.46-1.15L351.46-1.15Q352.76-1.15 354.01-1.58 355.26-2 356.11-2.88 356.96-3.75 356.96-5.1L356.96-5.1Q356.96-6.5 356.14-7.43 355.31-8.35 353.96-9.05 352.61-9.75 351.06-10.35L351.06-10.35Q349.56-10.95 348.06-11.6 346.56-12.25 345.29-13.15 344.01-14.05 343.26-15.35 342.51-16.65 342.51-18.55L342.51-18.55Q342.51-19.6 342.91-20.85 343.31-22.1 344.26-23.23 345.21-24.35 346.86-25.08 348.51-25.8 351.06-25.8L351.06-25.8Q352.41-25.8 354.06-25.35 355.71-24.9 357.26-23.65L357.26-23.65 357.16-25.55 359.26-25.55 359.26-16.8 357.66-16.8Q357.56-18.55 356.86-20.18 356.16-21.8 354.81-22.88 353.46-23.95 351.31-23.95L351.31-23.95Q349.01-23.95 347.71-22.8 346.41-21.65 346.41-20.15L346.41-20.15Q346.41-18.6 347.39-17.57 348.36-16.55 349.91-15.8 351.46-15.05 353.21-14.35L353.21-14.35Q355.11-13.55 356.91-12.6 358.71-11.65 359.86-10.23 361.01-8.8 361.01-6.55L361.01-6.55Q361.01-4.05 359.74-2.4 358.46-0.75 356.49 0.03 354.51 0.8 352.36 0.8ZM393.81 0L393.91-31.25Q393.91-32.05 393.93-32.77 393.96-33.5 394.06-34.5L394.06-34.5Q393.16-34.45 392.28-34.4 391.41-34.35 390.51-34.3L390.51-34.3 390.51-36.4Q392.71-36.4 393.93-36.6 395.16-36.8 395.78-37.1 396.41-37.4 396.76-37.75L396.76-37.75 398.21-37.75 398.21-22.85Q399.61-24.25 401.53-25.03 403.46-25.8 405.76-25.8L405.76-25.8Q408.96-25.8 411.53-24.25 414.11-22.7 415.61-19.85 417.11-17 417.11-13.1L417.11-13.1Q417.11-8.85 415.26-5.73 413.41-2.6 410.46-0.9 407.51 0.8 404.11 0.8L404.11 0.8Q402.41 0.8 400.38 0.18 398.36-0.45 396.76-2.25L396.76-2.25 395.56 0 393.81 0ZM398.21-20.5L398.21-7.85Q398.21-5.2 399.06-3.78 399.91-2.35 401.26-1.8 402.61-1.25 404.11-1.25L404.11-1.25Q406.51-1.25 408.26-2.6 410.01-3.95 410.98-6.33 411.96-8.7 411.96-11.85L411.96-11.85Q411.96-15.25 411.11-17.82 410.26-20.4 408.56-21.88 406.86-23.35 404.26-23.35L404.26-23.35Q402.61-23.35 400.98-22.58 399.36-21.8 398.21-20.5L398.21-20.5ZM440.45 0.8L440.45 0.8Q437 0.8 434.23-0.83 431.45-2.45 429.85-5.43 428.25-8.4 428.25-12.45L428.25-12.45Q428.25-15.95 429.83-19 431.4-22.05 434.25-23.93 437.1-25.8 440.85-25.8L440.85-25.8Q442.95-25.8 444.78-25.13 446.6-24.45 448-23.08 449.4-21.7 450.2-19.63 451-17.55 451-14.75L451-14.75 433.4-14.45Q433.4-10.65 434.23-7.78 435.05-4.9 436.9-3.33 438.75-1.75 441.65-1.75L441.65-1.75Q443.2-1.75 444.83-2.3 446.45-2.85 447.85-3.8 449.25-4.75 450.1-5.9L450.1-5.9 451.3-4.9Q449.95-2.8 448.05-1.55 446.15-0.3 444.15 0.25 442.15 0.8 440.45 0.8ZM433.55-16.55L433.55-16.55 446.3-16.55Q446.3-18.35 445.78-20.03 445.25-21.7 444.05-22.78 442.85-23.85 440.9-23.85L440.9-23.85Q438-23.85 436.08-22.13 434.15-20.4 433.55-16.55ZM471.45 0.8L471.45 0.8Q470.3 0.8 469.1 0.48 467.9 0.15 466.88-0.8 465.85-1.75 465.25-3.58 464.65-5.4 464.65-8.4L464.65-8.4 464.75-22.9 460.9-22.85 460.9-25Q462.2-25.05 463.55-25.98 464.9-26.9 465.98-28.5 467.05-30.1 467.45-32L467.45-32 469.15-32 469.15-25 477.55-25 477.55-23.05 469.15-22.95 469.05-9.05Q469.05-6.8 469.43-5.23 469.8-3.65 470.65-2.85 471.5-2.05 472.85-2.05L472.85-2.05Q474.25-2.05 475.48-2.85 476.7-3.65 477.65-5.05L477.65-5.05 479-3.95Q477.9-2.3 476.83-1.35 475.75-0.4 474.75 0.08 473.75 0.55 472.9 0.68 472.05 0.8 471.45 0.8ZM498.25 0.8L498.25 0.8Q497.1 0.8 495.9 0.48 494.7 0.15 493.67-0.8 492.65-1.75 492.05-3.58 491.45-5.4 491.45-8.4L491.45-8.4 491.55-22.9 487.7-22.85 487.7-25Q489-25.05 490.35-25.98 491.7-26.9 492.77-28.5 493.85-30.1 494.25-32L494.25-32 495.95-32 495.95-25 504.35-25 504.35-23.05 495.95-22.95 495.85-9.05Q495.85-6.8 496.22-5.23 496.6-3.65 497.45-2.85 498.3-2.05 499.65-2.05L499.65-2.05Q501.05-2.05 502.27-2.85 503.5-3.65 504.45-5.05L504.45-5.05 505.8-3.95Q504.7-2.3 503.62-1.35 502.55-0.4 501.55 0.08 500.55 0.55 499.7 0.68 498.85 0.8 498.25 0.8ZM527.24 0.8L527.24 0.8Q523.79 0.8 521.02-0.83 518.24-2.45 516.64-5.43 515.04-8.4 515.04-12.45L515.04-12.45Q515.04-15.95 516.62-19 518.19-22.05 521.04-23.93 523.89-25.8 527.64-25.8L527.64-25.8Q529.74-25.8 531.57-25.13 533.39-24.45 534.79-23.08 536.19-21.7 536.99-19.63 537.79-17.55 537.79-14.75L537.79-14.75 520.19-14.45Q520.19-10.65 521.02-7.78 521.84-4.9 523.69-3.33 525.54-1.75 528.44-1.75L528.44-1.75Q529.99-1.75 531.62-2.3 533.24-2.85 534.64-3.8 536.04-4.75 536.89-5.9L536.89-5.9 538.09-4.9Q536.74-2.8 534.84-1.55 532.94-0.3 530.94 0.25 528.94 0.8 527.24 0.8ZM520.34-16.55L520.34-16.55 533.09-16.55Q533.09-18.35 532.57-20.03 532.04-21.7 530.84-22.78 529.64-23.85 527.69-23.85L527.69-23.85Q524.79-23.85 522.87-22.13 520.94-20.4 520.34-16.55ZM549.19 0L549.19-1.5Q550.74-1.5 551.34-2.27 551.94-3.05 552.04-4.42 552.14-5.8 552.14-7.6L552.14-7.6 552.14-19Q552.14-19.8 552.17-20.6 552.19-21.4 552.34-22.25L552.34-22.25Q551.44-22.2 550.57-22.18 549.69-22.15 548.79-22.1L548.79-22.1 548.79-24.15 550.34-24.15Q552.49-24.15 553.32-24.58 554.14-25 554.69-25.5L554.69-25.5 556.14-25.5Q556.24-24.7 556.29-23.53 556.34-22.35 556.39-20.55L556.39-20.55Q557.14-21.8 558.44-23 559.74-24.2 561.37-25 562.99-25.8 564.79-25.8L564.79-25.8Q566.19-25.8 567.24-25.05 568.29-24.3 568.29-22.65L568.29-22.65Q568.29-22.25 568.04-21.68 567.79-21.1 567.24-20.68 566.69-20.25 565.79-20.25L565.79-20.25Q564.69-20.3 564.04-21.13 563.39-21.95 563.54-23.05L563.54-23.05Q562.29-23.1 560.97-22.4 559.64-21.7 558.49-20.48 557.34-19.25 556.44-17.6L556.44-17.6 556.49-5.3Q556.49-4.3 556.47-3.53 556.44-2.75 556.29-1.9L556.29-1.9Q557.09-1.95 557.87-1.98 558.64-2 559.44-2.05L559.44-2.05 559.44 0 549.19 0ZM609.98 0.8L609.98 0.8Q606.53 0.8 603.76-0.83 600.98-2.45 599.38-5.43 597.78-8.4 597.78-12.45L597.78-12.45Q597.78-15.95 599.36-19 600.93-22.05 603.78-23.93 606.63-25.8 610.38-25.8L610.38-25.8Q612.48-25.8 614.31-25.13 616.13-24.45 617.53-23.08 618.93-21.7 619.73-19.63 620.53-17.55 620.53-14.75L620.53-14.75 602.93-14.45Q602.93-10.65 603.76-7.78 604.58-4.9 606.43-3.33 608.28-1.75 611.18-1.75L611.18-1.75Q612.73-1.75 614.36-2.3 615.98-2.85 617.38-3.8 618.78-4.75 619.63-5.9L619.63-5.9 620.83-4.9Q619.48-2.8 617.58-1.55 615.68-0.3 613.68 0.25 611.68 0.8 609.98 0.8ZM603.08-16.55L603.08-16.55 615.83-16.55Q615.83-18.35 615.31-20.03 614.78-21.7 613.58-22.78 612.38-23.85 610.43-23.85L610.43-23.85Q607.53-23.85 605.61-22.13 603.68-20.4 603.08-16.55ZM643.18 0.15L641.18 0.15 634.03-16.15Q633.23-18.05 632.78-19.4 632.33-20.75 632.16-21.65 631.98-22.55 631.93-23.1L631.93-23.1 629.78-22.95 629.78-25 638.98-25 638.98-23.5Q637.48-23.5 637.06-22.73 636.63-21.95 636.93-20.68 637.23-19.4 637.83-17.95L637.83-17.95 641.68-9.15Q642.08-8.3 642.46-7.38 642.83-6.45 643.18-5.45L643.18-5.45 643.23-5.45Q643.48-6.2 643.81-7.05 644.13-7.9 644.38-8.7L644.38-8.7 648.38-19.65Q648.78-20.85 649.23-21.75 649.68-22.65 649.88-23.1L649.88-23.1 646.68-22.95 646.68-25 654.58-25 654.58-23.5Q653.48-23.5 652.73-22.75 651.98-22 651.31-20.5 650.63-19 649.73-16.75L649.73-16.75 643.18 0.15ZM675.73 0.8L675.73 0.8Q672.28 0.8 669.5-0.83 666.73-2.45 665.13-5.43 663.53-8.4 663.53-12.45L663.53-12.45Q663.53-15.95 665.1-19 666.68-22.05 669.53-23.93 672.38-25.8 676.13-25.8L676.13-25.8Q678.23-25.8 680.05-25.13 681.88-24.45 683.28-23.08 684.68-21.7 685.48-19.63 686.28-17.55 686.28-14.75L686.28-14.75 668.68-14.45Q668.68-10.65 669.5-7.78 670.33-4.9 672.18-3.33 674.03-1.75 676.93-1.75L676.93-1.75Q678.48-1.75 680.1-2.3 681.73-2.85 683.13-3.8 684.53-4.75 685.38-5.9L685.38-5.9 686.58-4.9Q685.23-2.8 683.33-1.55 681.43-0.3 679.43 0.25 677.43 0.8 675.73 0.8ZM668.83-16.55L668.83-16.55 681.58-16.55Q681.58-18.35 681.05-20.03 680.53-21.7 679.33-22.78 678.13-23.85 676.18-23.85L676.18-23.85Q673.28-23.85 671.35-22.13 669.43-20.4 668.83-16.55ZM697.67 0L697.67-1.5Q699.22-1.5 699.82-2.27 700.42-3.05 700.52-4.42 700.62-5.8 700.62-7.6L700.62-7.6 700.62-19Q700.62-19.8 700.65-20.6 700.67-21.4 700.82-22.25L700.82-22.25Q699.92-22.2 699.05-22.18 698.17-22.15 697.27-22.1L697.27-22.1 697.27-24.15 698.82-24.15Q700.97-24.15 701.8-24.58 702.62-25 703.17-25.5L703.17-25.5 704.62-25.5Q704.72-24.7 704.77-23.53 704.82-22.35 704.87-20.55L704.87-20.55Q705.62-21.8 706.92-23 708.22-24.2 709.85-25 711.47-25.8 713.27-25.8L713.27-25.8Q714.67-25.8 715.72-25.05 716.77-24.3 716.77-22.65L716.77-22.65Q716.77-22.25 716.52-21.68 716.27-21.1 715.72-20.68 715.17-20.25 714.27-20.25L714.27-20.25Q713.17-20.3 712.52-21.13 711.87-21.95 712.02-23.05L712.02-23.05Q710.77-23.1 709.45-22.4 708.12-21.7 706.97-20.48 705.82-19.25 704.92-17.6L704.92-17.6 704.97-5.3Q704.97-4.3 704.95-3.53 704.92-2.75 704.77-1.9L704.77-1.9Q705.57-1.95 706.35-1.98 707.12-2 707.92-2.05L707.92-2.05 707.92 0 697.67 0ZM730.97 13.55L730.97 13.55Q729.42 13.55 728.32 12.8 727.22 12.05 727.22 10.5L727.22 10.5Q727.22 9.6 727.82 8.85 728.42 8.1 729.37 8.1L729.37 8.1Q730.57 8.05 731 8.85 731.42 9.65 731.42 10.25L731.42 10.25Q731.42 10.4 731.42 10.58 731.42 10.75 731.37 10.95L731.37 10.95Q731.52 11.05 731.92 11.05L731.92 11.05Q732.52 11.05 733.22 10.55 733.92 10.05 734.47 9.1L734.47 9.1Q735.12 8 736 5.8 736.87 3.6 737.97 0.55L737.97 0.55 730.17-16.15Q728.87-18.95 728.3-20.6 727.72-22.25 727.52-23.05L727.52-23.05 725.12-22.95 725.12-25 735.47-25 735.47-23.5 735.27-23.5Q733.17-23.35 732.97-21.93 732.77-20.5 734.12-17.6L734.12-17.6 739.97-5.05Q741.12-8.25 742.17-11.38 743.22-14.5 744.27-17.6L744.27-17.6Q744.67-18.7 745.1-19.88 745.52-21.05 745.95-21.98 746.37-22.9 746.72-23.15L746.72-23.15 743.27-22.95 743.27-25 751.12-25 751.12-23.5Q749.27-22.8 748.35-21.18 747.42-19.55 746.47-17L746.47-17 740.22 0.45Q738.72 4.65 737.47 7.58 736.22 10.5 734.72 12.03 733.22 13.55 730.97 13.55ZM770.67 0.8L770.67 0.8Q767.62 0.8 765.17-0.73 762.72-2.25 761.29-5.1 759.87-7.95 759.87-11.8L759.87-11.8Q759.87-15.9 761.52-19.05 763.17-22.2 766.09-24 769.02-25.8 772.72-25.8L772.72-25.8Q774.37-25.8 775.99-25.38 777.62-24.95 778.57-24.4L778.57-24.4 778.57-31.25Q778.57-32.05 778.59-32.77 778.62-33.5 778.72-34.5L778.72-34.5Q777.82-34.45 776.94-34.4 776.07-34.35 775.17-34.3L775.17-34.3 775.17-36.4Q777.37-36.4 778.57-36.6 779.77-36.8 780.39-37.1 781.02-37.4 781.37-37.75L781.37-37.75 782.82-37.75 782.82-5.3Q782.82-4.5 782.77-3.7 782.72-2.9 782.62-1.9L782.62-1.9Q783.52-1.95 784.39-2 785.27-2.05 786.17-2.1L786.17-2.1 786.17 0 779.02 0Q778.87-0.75 778.79-1.38 778.72-2 778.67-2.6L778.67-2.6Q777.27-1.05 775.22-0.13 773.17 0.8 770.67 0.8ZM772.47-1.65L772.47-1.65Q774.12-1.65 775.79-2.6 777.47-3.55 778.57-4.95L778.57-4.95Q778.52-5.55 778.52-6.23 778.52-6.9 778.52-7.7L778.52-7.7 778.57-22.1Q777.37-23 775.94-23.43 774.52-23.85 773.02-23.85L773.02-23.85Q770.52-23.85 768.67-22.4 766.82-20.95 765.87-18.35 764.92-15.75 765.02-12.25L765.02-12.25Q765.12-9.2 765.99-6.8 766.87-4.4 768.49-3.03 770.12-1.65 772.47-1.65ZM819.16 0L812.01 0Q811.86-0.85 811.81-1.5 811.76-2.15 811.66-2.85L811.66-2.85Q809.96-1.15 807.99-0.18 806.01 0.8 803.81 0.8L803.81 0.8Q800.01 0.8 798.16-0.93 796.31-2.65 796.31-5.15L796.31-5.15Q796.31-7.45 797.74-9.13 799.16-10.8 801.44-11.88 803.71-12.95 806.39-13.48 809.06-14 811.56-13.95L811.56-13.95 811.56-17.05Q811.56-18.8 811.26-20.35 810.96-21.9 809.96-22.9 808.96-23.9 806.76-23.95L806.76-23.95Q805.31-24 803.79-23.4 802.26-22.8 801.56-21.35L801.56-21.35Q801.96-20.95 802.09-20.43 802.21-19.9 802.21-19.45L802.21-19.45Q802.21-18.85 801.71-18.07 801.21-17.3 799.96-17.35L799.96-17.35Q798.91-17.35 798.36-18.07 797.81-18.8 797.81-19.8L797.81-19.8Q797.81-21.5 799.09-22.85 800.36-24.2 802.61-25 804.86-25.8 807.71-25.8L807.71-25.8Q811.91-25.8 813.91-23.58 815.91-21.35 815.86-16.55L815.86-16.55Q815.86-14.7 815.86-12.83 815.86-10.95 815.84-9.08 815.81-7.2 815.81-5.3L815.81-5.3Q815.81-4.5 815.76-3.7 815.71-2.9 815.61-1.9L815.61-1.9Q816.51-1.95 817.39-2 818.26-2.05 819.16-2.1L819.16-2.1 819.16 0ZM811.56-12.25L811.56-12.25Q809.86-12.2 807.99-11.83 806.11-11.45 804.54-10.7 802.96-9.95 801.99-8.72 801.01-7.5 801.06-5.75L801.06-5.75Q801.16-3.9 802.29-2.98 803.41-2.05 804.96-2.05L804.96-2.05Q807.01-2.05 808.54-2.83 810.06-3.6 811.56-5L811.56-5Q811.51-5.55 811.51-6.2 811.51-6.85 811.51-7.55L811.51-7.55Q811.51-7.8 811.54-9.15 811.56-10.5 811.56-12.25ZM832.91 13.55L832.91 13.55Q831.36 13.55 830.26 12.8 829.16 12.05 829.16 10.5L829.16 10.5Q829.16 9.6 829.76 8.85 830.36 8.1 831.31 8.1L831.31 8.1Q832.51 8.05 832.94 8.85 833.36 9.65 833.36 10.25L833.36 10.25Q833.36 10.4 833.36 10.58 833.36 10.75 833.31 10.95L833.31 10.95Q833.46 11.05 833.86 11.05L833.86 11.05Q834.46 11.05 835.16 10.55 835.86 10.05 836.41 9.1L836.41 9.1Q837.06 8 837.94 5.8 838.81 3.6 839.91 0.55L839.91 0.55 832.11-16.15Q830.81-18.95 830.24-20.6 829.66-22.25 829.46-23.05L829.46-23.05 827.06-22.95 827.06-25 837.41-25 837.41-23.5 837.21-23.5Q835.11-23.35 834.91-21.93 834.71-20.5 836.06-17.6L836.06-17.6 841.91-5.05Q843.06-8.25 844.11-11.38 845.16-14.5 846.21-17.6L846.21-17.6Q846.61-18.7 847.04-19.88 847.46-21.05 847.89-21.98 848.31-22.9 848.66-23.15L848.66-23.15 845.21-22.95 845.21-25 853.06-25 853.06-23.5Q851.21-22.8 850.29-21.18 849.36-19.55 848.41-17L848.41-17 842.16 0.45Q840.66 4.65 839.41 7.58 838.16 10.5 836.66 12.03 835.16 13.55 832.91 13.55Z" opacity="1" transform="matrix(1,0,0,1,0,0)" fill="#22932a" class="undefined-text-1" data-fill-palette-color="secondary" id="text-1"></path></svg></g></svg></g></svg></g></svg></g></svg></g></svg></g></svg></g></svg></g><defs></defs></svg><rect width="395.52" height="247.2" fill="none" stroke="none" visibility="hidden"></rect></g></svg></g></svg>